<?xml version="1.0" encoding="UTF-8" standalone="no"?>
<!-- Creator: CorelDRAW -->
<svg
   xmlns:dc="http://purl.org/dc/elements/1.1/"
   xmlns:cc="http://creativecommons.org/ns#"
   xmlns:rdf="http://www.w3.org/1999/02/22-rdf-syntax-ns#"
   xmlns:svg="http://www.w3.org/2000/svg"
   xmlns="http://www.w3.org/2000/svg"
   xmlns:sodipodi="http://sodipodi.sourceforge.net/DTD/sodipodi-0.dtd"
   xmlns:inkscape="http://www.inkscape.org/namespaces/inkscape"
   xml:space="preserve"
   width="330.2mm"
   height="228.6mm"
   style="shape-rendering:geometricPrecision; text-rendering:geometricPrecision; image-rendering:optimizeQuality; fill-rule:evenodd; clip-rule:evenodd"
   viewBox="0 0 330.2 228.6"
   id="svg2471"
   sodipodi:version="0.32"
   inkscape:version="0.46"
   sodipodi:docname="USB.svg"
   inkscape:output_extension="org.inkscape.output.svg.inkscape"><metadata
   id="metadata2498"><rdf:RDF><cc:Work
       rdf:about=""><dc:format>image/svg+xml</dc:format><dc:type
         rdf:resource="http://purl.org/dc/dcmitype/StillImage" /></cc:Work></rdf:RDF></metadata><sodipodi:namedview
   inkscape:window-height="744"
   inkscape:window-width="1280"
   inkscape:pageshadow="2"
   inkscape:pageopacity="0.0"
   guidetolerance="10.0"
   gridtolerance="10.0"
   objecttolerance="10.0"
   borderopacity="1.0"
   bordercolor="#666666"
   pagecolor="#ffffff"
   id="base"
   showgrid="false"
   inkscape:zoom="0.65754887"
   inkscape:cx="474.93723"
   inkscape:cy="413.10986"
   inkscape:window-x="-4"
   inkscape:window-y="-4"
   inkscape:current-layer="Capa_x0020_1" />
 <defs
   id="defs2473"><inkscape:path-effect
   effect="gears"
   id="path-effect2523"
   teeth="10" /><inkscape:perspective
   sodipodi:type="inkscape:persp3d"
   inkscape:vp_x="0 : 405 : 1"
   inkscape:vp_y="0 : 1000 : 0"
   inkscape:vp_z="1170 : 405 : 1"
   inkscape:persp3d-origin="585 : 270 : 1"
   id="perspective2500" />
  <style
   type="text/css"
   id="style2475">
   
    .fil0 {fill:black}
   
  </style>
 </defs>
 <g
   id="Capa_x0020_1">
  <metadata
   id="CorelCorpID_0Corel-Layer" />
  <path
   class="fil0"
   d="M 2.8222,121.708 L 2.8222,121.708 C 3.0792,121.708 4.5599,112.1784 4.8048,110.9906 C 5.4227,107.994 7.3018,104.1293 8.4726,101.6056 C 9.8204,98.7001 10.7616,95.6202 12.2292,92.6622 C 13.4626,90.1763 15.8781,87.3126 17.5024,84.8827 C 18.7812,82.9698 21.4012,78.9545 22.8403,77.5206 C 25.1349,75.2344 27.2961,73.3791 29.5483,71.1758 C 31.864,68.9105 33.6611,66.8179 36.2586,64.8333 C 38.6617,62.9972 41.337,61.0981 43.8809,59.4028 C 46.4179,57.7121 48.6231,55.5722 51.3876,54.2096 C 54.3163,52.7661 56.8308,50.9848 59.7339,49.5031 C 62.6499,48.0148 65.3123,46.188 68.0848,44.8012 C 70.9996,43.3433 73.9373,42.1301 77.1405,40.8042 C 83.2012,38.2953 89.4389,35.5833 95.5561,33.467 C 98.5794,32.4211 102.1995,31.2395 105.1278,29.9859 C 108.1167,28.7062 111.7859,27.8337 114.62,26.4695 L 113.9683,24.3948 L 164.7745,4.0155 L 216.3143,24.3629 L 215.5472,26.4581 C 218.3771,27.8159 221.7704,28.5841 224.8376,29.8677 C 227.9421,31.1669 231.111,32.289 234.3777,33.3804 C 240.6613,35.4797 246.6126,38.2509 252.8112,40.6997 C 258.8517,43.0861 264.8651,46.0008 269.9523,49.3113 C 272.3911,50.8984 275.6052,52.6911 278.2178,54.0986 C 281.2365,55.7249 283.2879,57.523 286.0277,59.3415 C 291.8601,63.2126 295.454,65.9273 300.3024,70.8196 C 302.4433,72.9798 304.7619,74.9403 307.0056,77.1691 C 308.7666,78.9185 311.1098,82.5433 312.5646,84.6629 C 313.9548,86.6883 316.6886,90.131 317.739,92.1885 C 319.2933,95.2329 320.2252,98.1399 321.6121,101.3682 C 322.7668,104.0562 324.7467,107.7897 325.3208,110.7122 C 325.5787,112.0247 326.888,121.2989 327.3778,121.708 L 327.3778,153.1052 L 320.2022,170.8357 L 319.5328,163.3415 L 317.8974,132.2889 L 317.5077,125.9408 C 317.2529,122.4599 315.8133,119.1977 315.0306,116.0636 C 314.2383,112.8909 312.4238,110.727 311.2792,107.8205 C 309.6132,103.5894 305.4525,95.2377 303.1134,91.6446 C 301.089,88.5349 300.772,87.1404 298.0088,84.4021 C 295.9139,82.3262 294.2772,80.3041 292.3706,78.0459 C 290.9488,76.3619 281.0738,69.3266 278.564,67.5108 C 273.7255,64.0102 268.4766,61.5391 263.4478,58.2853 C 258.4443,55.0479 253.0152,52.6548 247.075,50.3164 C 241.1849,47.9979 235.9894,45.3135 229.7912,43.2585 C 226.7085,42.2365 224.1415,41.0186 221.0588,39.9965 C 218.5135,39.1527 214.591,37.7533 212.3722,36.6886 L 211.9763,38.086 C 209.2036,37.4437 203.2423,34.9539 200.1542,33.7372 C 196.2163,32.1857 192.1339,30.8859 188.3833,29.2803 C 186.5127,28.4795 165.0483,20.4609 164.7472,20.4609 C 164.6434,20.4609 143.6928,28.4884 141.5045,29.3209 C 137.732,30.7563 133.5791,32.1329 129.7041,33.7483 C 126.7901,34.963 120.996,37.4438 118.1805,38.0997 L 117.7846,36.7023 C 115.2038,37.9477 111.8007,38.9345 108.8791,40.0872 C 105.9164,41.2561 103.0664,42.2523 100.0556,43.2582 C 94.0123,45.2772 88.5103,47.8679 82.7815,50.3257 C 76.6498,52.9563 71.9579,55.0796 66.5454,58.4313 C 61.5712,61.5116 55.921,64.243 51.4284,67.6559 C 49.0096,69.4933 38.8857,76.6494 37.6661,78.2353 C 35.9364,80.4847 33.8215,82.7207 31.835,84.7514 C 29.3479,87.2936 28.8073,88.8582 26.9403,91.8512 C 24.2252,96.2038 20.9201,103.1387 18.8186,108.0711 C 17.5224,111.1132 16.021,112.845 15.1124,116.3594 C 14.3547,119.2905 12.9427,122.5218 12.7,125.9414 L 12.2421,132.2839 L 10.6122,163.3374 L 10.163,170.7395 L 2.8222,153.1052 L 2.8222,121.708 z"
   id="path2479"
   style="fill:#000000" />
  <path
   class="fil0"
   d="M126.312 62.8426l0.3356 2.0685c-1.9796,0.1648 -25.6496,9.0444 -29.0459,10.4652 -4.8282,2.0198 -9.6498,3.2375 -14.2281,5.5275 -3.8546,1.928 -9.878,4.6647 -13.249,6.8593 -4.0655,2.6467 -7.9359,5.088 -11.2992,8.4564 -2.0383,2.0414 -3.0417,2.5317 -4.9399,4.9379 -1.5206,1.9275 -2.9148,3.8494 -4.367,5.8635 -3.1499,4.3687 -4.8474,7.5908 -7.5339,12.2217 -1.6939,2.9199 -1.8245,3.2581 -2.6967,7.1811 -0.5529,2.4869 -1.5403,6.203 -1.5403,8.6902l-0.0137 33.2043 -1.3974 -0.396 0 34.2194 0.0607 0.6182 12.9921 8.9068 0 -35.9833 0.0074 -0.7249 -1.0658 -0.3334 0 -39.8639c0,-3.3729 2.5371,-11.4986 3.9579,-13.681 2.4906,-3.8257 3.8699,-7.5855 6.703,-11.2887 1.1734,-1.5338 2.473,-3.5609 3.5867,-5.2327 1.5691,-2.3555 2.6958,-2.7259 4.7198,-4.4524 1.5722,-1.3411 3.2628,-2.6914 4.761,-4.0585 1.5808,-1.4426 3.9808,-2.3052 5.905,-3.2672 3.5385,-1.7692 8.1352,-4.4368 11.7696,-5.8693 4.4059,-1.7366 8.844,-3.0544 13.4109,-4.5808 4.4687,-1.4936 9.0162,-3.2534 13.3153,-4.6763 3.8745,-1.2823 9.9951,-3.0134 13.3818,-4.6366l0.3538 1.1243 34.891 -12.0131 34.8729 11.9293 0.4186 -1.0331c3.2873,1.5774 9.4247,3.3237 13.0959,4.543 4.4269,1.4702 8.9103,3.1516 13.3158,4.6759 4.4416,1.5367 8.9322,2.9448 13.4154,4.5762 3.36,1.2228 8.6061,4.248 12.0312,5.9605 5.0044,2.5021 6.5243,3.4685 10.4873,7.1516 1.6803,1.5617 3.2964,2.2156 4.6074,4.212 1.1746,1.7886 2.4456,3.6578 3.7318,5.4405 2.836,3.9307 4.1798,7.2441 6.7028,11.2888 1.5417,2.4717 4.1041,10.1987 4.1041,13.8876l-0.0253 39.7981 -1.0331 0.4185 0 0.7056 0.0564 36.0623 12.6436 -8.8984 0 -0.7056 0.0074 -34.2001 -1.0657 0.3335 0 -33.1611c0,-2.5934 -0.9558,-5.8594 -1.4687,-8.4091 -0.7237,-3.5973 -1.032,-4.3402 -2.6443,-7.2335 -2.4674,-4.4279 -5.0864,-8.2041 -7.8063,-12.302 -1.3401,-2.0189 -2.7259,-3.7348 -4.0921,-5.7856 -1.7307,-2.5978 -2.8489,-2.941 -4.8913,-4.9865 -3.4701,-3.4753 -7.2808,-5.904 -11.4743,-8.6341 -3.3548,-2.1841 -9.3691,-4.7431 -13.1313,-6.6242 -4.1415,-2.0707 -9.7621,-4.0919 -14.4174,-5.691 -4.7508,-1.6318 -9.8748,-3.4572 -14.734,-5.3743 -4.6353,-1.8288 -10.386,-3.4966 -14.6057,-5.5184l0.348 -1.712 -38.4526 -13.8551 -38.7712 13.8545z"
   id="path2481" />
  <path
   class="fil0"
   d="M132.292 80.4334l0.3527 1.7638c-3.0912,1.6357 -7.5379,3.0129 -11.0539,4.4683 -3.8714,1.6026 -7.3675,2.9628 -11.2889,4.5862 -7.5588,3.1292 -14.8105,5.937 -22.3421,9.055 -3.0845,1.2769 -8.5532,2.9805 -10.7822,4.7401 -3.0431,2.4023 -5.7111,4.6644 -8.8195,7.0555 -0.8474,0.6518 -6.2619,7.6018 -7.0532,8.8218 -0.635,0.9791 -4.5074,10.3407 -4.5074,11.3676l-0.0508 46.3203 -2.4186 -1.1648 0.0481 36.5886 14.4158 6.803 0 -34.925c0,-1.2255 -0.7056,-0.5383 -0.7056,-1.7638l0 -45.8611c0,-1.9449 2.1245,-10.117 2.8181,-11.293 1.4246,-2.4154 3.8303,-6.473 5.7374,-8.3737 3.0093,-2.9993 3.267,-4.8638 7.7188,-6.3923 3.548,-1.2182 6.9032,-2.6489 10.4997,-3.9643 6.7537,-2.4701 13.7631,-5.2467 20.6275,-7.9475 3.5827,-1.4096 6.6923,-2.4865 10.2305,-3.8805 3.2479,-1.2797 7.6897,-2.5471 10.4734,-4.0172l0.3521 1.1189 28.5429 -9.892 28.5227 9.8136 0.4186 -1.0331c2.5004,1.323 7.2635,2.8457 10.1934,3.9177 3.3607,1.2296 6.7067,2.5918 10.2305,3.8806 6.771,2.4763 13.7596,5.2453 20.6275,7.9475 3.5828,1.4096 6.6924,2.4865 10.2306,3.8805 5.5503,2.1868 4.4219,2.7443 8.0735,6.3904 2.2325,2.2291 4.007,5.5137 5.7792,8.3319 0.8434,1.3412 2.9514,9.4229 2.9514,11.5125l0 45.8611c0,1.2255 -0.7056,0.5383 -0.7056,1.7638l0.0648 35.0551 14.0464 -6.8328 -0.0175 -36.7185 -2.0992 1.0879 0 -46.2138c0,-0.9049 -3.7614,-10.1925 -4.3621,-11.1601 -0.7574,-1.2198 -6.1427,-8.1345 -7.009,-8.866 -2.939,-2.4815 -5.8834,-4.5251 -8.8211,-7.0539 -2.1144,-1.8201 -7.8904,-3.6301 -10.9701,-4.905 -7.4877,-3.0998 -14.8893,-6.1143 -22.4193,-8.9779 -3.6454,-1.3863 -7.6779,-3.0025 -11.3295,-4.5455 -3.4522,-1.4586 -8.1441,-2.922 -11.2764,-4.5804l0.693 -1.7695c-2.4517,-0.5712 -5.6028,-2.1655 -8.2468,-3.0421 -2.8842,-0.9563 -5.3166,-2.1318 -8.2008,-3.0881 -1.9369,-0.6421 -16.2002,-6.2171 -16.3607,-6.2171 -0.3002,0 -14.7512,5.4576 -16.4513,6.1265 -2.7776,1.0928 -5.3606,2.015 -8.1254,3.1635 -2.0978,0.8716 -6.2546,2.5967 -8.2316,3.0573z"
   id="path2483" />
  <path
   class="fil0"
   d="M138.318 98.5029l0.3236 1.686c-5.0188,2.6556 -13.0956,4.9058 -18.8154,7.2902 -5.9428,2.4773 -12.9935,5.3807 -19.0648,7.3935 -4.3495,1.4421 -14.8453,6.157 -16.8755,9.23 -1.2748,1.9296 -4.5415,6.1054 -5.1823,7.8705 -0.5763,1.5872 -2.5037,9.1391 -2.5037,10.9019l-0.0103 46.2331 -1.4008 -0.7248 0 34.925 14.4639 0 0 -26.1056 -0.0104 -0.6862 -1.4007 -0.7249 0 -0.7055 -0.0944 -50.454 0.3513 -4.9434 0.4486 -3.8693c0.0804,-0.684 3.6139,-5.3046 4.1412,-5.7365 0.6466,-0.5296 5.3745,-3.1539 6.3208,-3.557 4.7354,-2.0177 9.5241,-3.4879 14.3617,-5.3939 4.8859,-1.925 9.6554,-3.2958 14.4528,-5.3027 4.6278,-1.936 10.0674,-3.357 14.3025,-5.3961l0.396 1.3974c3.5737,-0.8326 21.0202,-9.1723 22.225,-9.1723 1.9901,0 18.907,8.2349 22.8874,9.1585l0.396 -1.3974c4.2783,2.0529 9.7179,3.4739 14.3457,5.4099 4.7974,2.0069 9.5669,3.3777 14.4528,5.3027 4.8376,1.906 9.6263,3.3762 14.3617,5.3939 1.1624,0.4952 5.324,3.0033 6.15,3.7278 0.6088,0.534 4.2286,4.856 4.3059,5.5664l0.4526 3.8732 0.259 4.9456 0 50.4472 -0.0103 0.6862 -1.4008 0.7249 0 0.7055 0 26.1056 14.4639 0 -0.0103 -34.9443 -1.4008 0.7248 0 -46.2138c0,-1.9295 -1.8591,-8.9217 -2.4189,-10.6339 -0.4201,-1.2849 -4.2361,-6.4414 -5.2647,-7.7881 -2.8259,-3.6998 -11.7046,-7.8652 -16.8779,-9.5804 -6.5646,-2.1763 -12.6679,-5.1001 -19.1364,-7.3219 -3.1236,-1.0729 -6.1887,-2.5367 -9.4386,-3.6142 -2.6267,-0.8708 -7.5001,-2.6058 -9.6454,-3.7419l0.6693 -1.7053 -26.8166 -10.0199 -26.7527 10.0335z"
   id="path2485" />
  <path
   class="fil0"
   d="M94.1917 224.367l12.3472 0 0.0074 -18.3637 -1.0658 -0.3335 0 -58.2083 -0.0248 -0.7686 42.9979 -16.845 0.4186 1.033c2.4468,-0.57 15.2287,-7.0555 15.875,-7.0555 1.4371,0 13.6479,6.3723 16.5148,7.0303l0.3948 -0.9723 43.0627 16.8725 0 0.7056 0 57.15 -0.0104 0.6862 -1.4008 0.7249 0 18.3444 12.7 0 -0.0074 -25.4114 -1.7564 1.0697 -0.0232 -60.6178 -49.3039 -19.0937 0.2909 -1.4273c-3.1646,-0.7373 -19.1193,-8.4667 -20.1083,-8.4667 -1.6798,0 -16.6222,7.6545 -20.1854,8.4869l0.4505 1.4445 -49.4096 18.9964 -0.0372 60.7345 -1.7266 -1.1151 0 25.4z"
   id="path2487" />
  <path
   class="fil0"
   d="M120.322 43.8115l0.3277 0.9913c-4.9061,2.596 -10.8062,4.4217 -15.9904,6.9402 -4.7152,2.2906 -11.2085,5.0348 -16.072,6.8585 -4.6875,1.7577 -11.3673,4.6343 -16.0308,6.8998 -2.9448,1.4306 -4.9076,2.0534 -7.6433,3.6456 -2.4588,1.431 -4.6189,3.0433 -7.1783,4.4633 -5.0357,2.7937 -8.7652,6.3588 -12.6685,10.2621 -2.0151,2.0151 -3.8116,3.4679 -5.8196,5.4693 -2.115,2.1081 -3.231,4.3326 -5.1116,6.53 -4.2063,4.9148 -5.771,8.2659 -8.7355,14.1951 -1.6845,3.3691 -2.1164,4.2 -3.0423,8.5993 -0.6904,3.2802 -1.5841,6.4265 -1.9822,9.737l-0.9727 12.0025 -0.084 18.1147 -3.4438 -2.2397 0 27.5167c0,0.8691 12.9518,13.0985 14.4639,14.1111l-0.0253 -33.4481 -1.0331 -0.4186 0 -0.7055 0 -25.7528c0,-3.4608 1.003,-6.4353 1.4112,-9.525 0.5277,-3.9953 0.856,-5.4562 2.238,-8.6981 2.755,-6.4629 4.0366,-9.1705 7.6397,-14.5852 3.2632,-4.9038 5.8325,-7.7987 9.9667,-11.9055 2.3097,-2.2944 2.6781,-3.344 5.5556,-5.3806 2.1803,-1.5432 4.2301,-3.1881 6.4792,-4.8097 1.8847,-1.3589 4.5245,-3.528 6.4542,-4.4818 2.3516,-1.1624 5.227,-2.1931 7.7499,-3.1862 5.4153,-2.1317 10.4199,-4.3229 15.7833,-6.4418 5.498,-2.172 10.4307,-4.1141 15.8623,-6.3627 4.8544,-2.0096 11.4523,-4.1899 15.714,-6.4541l0.4185 1.4587 40.5296 -14.8305 40.5436 14.7555 0.3959 -1.3974c4.3183,2.2849 10.7872,4.3493 15.5223,6.35 5.196,2.1956 10.4923,4.3591 15.8343,6.3907 4.9641,1.8877 10.564,4.1979 15.5629,6.3093 2.4979,1.0551 5.3301,2.0513 7.7674,3.1687 2.2652,1.0386 4.6069,3.1409 6.6193,4.6696 2.1574,1.6388 4.0734,3.031 6.2967,4.6394 2.8117,2.0343 3.3004,3.2351 5.5106,5.4255 3.9416,3.9062 7.0828,7.2851 10.2168,12.0082 1.3937,2.1004 3.2963,4.2555 4.3974,6.5387 1.1887,2.4652 2.0988,5.1709 3.1712,7.7649 1.3425,3.2471 3.9984,14.0879 3.9984,18.2266l0 26.1056 0.0074 0.7248 -1.0658 0.3335 0 33.5139c1.5121,-1.0126 14.4639,-13.242 14.4639,-14.1111l-0.0514 -27.592 -3.4764 2.192 0.1561 -18.0064 -1.2144 -11.9797c-0.3086,-3.2778 -1.187,-6.2699 -1.8228,-9.4661 -0.8128,-4.0862 -1.3144,-5.2753 -2.9984,-8.6432 -1.3226,-2.6451 -2.4094,-4.9007 -3.7596,-7.5293 -1.3225,-2.5751 -3.3857,-4.3032 -5.0483,-6.5934 -2.9821,-4.1078 -7.0209,-8.9199 -10.7952,-12.1354 -4.7309,-4.0306 -6.9229,-7.0234 -12.6149,-10.3156 -2.3683,-1.3698 -4.5665,-3.0342 -6.9376,-4.3512 -2.9204,-1.6222 -4.8923,-2.3653 -7.8875,-3.7543 -5.0044,-2.3207 -10.7821,-4.8704 -15.9983,-6.9322 -5.332,-2.1076 -11.04,-4.4775 -16.1044,-6.8261 -5.1422,-2.3846 -11.3582,-4.4879 -16.2026,-7.0541l0.3113 -1.0057 -44.8065 -16.71 -44.7518 16.717z"
   id="path2489" />
  <path
   class="fil0"
   d="M154.164 178.153l0 45.8611 21.5194 0 0 -45.8611c-1.674,-0.39 -10.2396,-4.2333 -10.5833,-4.2333 -1.0667,0 -8.8604,3.7498 -10.9361,4.2333z"
   id="path2491" />
  <polygon
   class="fil0"
   points="156.655,154.571 157.012,155.637 135.114,164.747 135.114,224.014 145.344,224.014 145.344,172.861 145.318,172.093 160.18,165.798 160.534,166.922 164.755,165.425 169.62,166.839 170.013,165.868 184.856,172.156 184.856,172.861 184.856,224.014 194.733,224.014 194.708,164.807 173.233,155.582 173.55,154.561 164.771,151.403 "
   id="polygon2493" />
  <path
   class="fil0"
   d="M113.947 224.367l12.7 0 0 -8.4667 -1.7639 0 0 -56.7971 0 -0.7056 28.6018 -12.639 0.3692 1.3364 11.2193 -3.9406 10.9347 4.0315 0.7527 -1.478 28.5825 12.6287 -0.0268 0.7666 0 56.7971 -1.7639 0 0 8.4667 12.7 0 0 -14.4639 -2.0864 0.7786 -0.0303 -58.2813 -34.9512 -15.109 0.456 -1.4514c-2.7327,-0.6389 -13.5776,-5.6646 -14.8937,-5.6646 -0.6017,0 -12.2083,5.119 -14.4639,5.6444l0.4248 1.7459 -34.9653 14.9082 -0.0317 58.1348 -1.7696 -0.6931 0.0057 14.4514z"
   id="path2495" />
 </g>
</svg>